<?xml version="1.0" encoding="UTF-8"?>
<svg id="Layer_1" data-name="Layer 1" xmlns="http://www.w3.org/2000/svg" width="800" height="300" viewBox="0 0 800 300">
  <defs>
    <style>
      .cls-1 {
        fill: #231f20;
      }
    </style>
  </defs>
  <g>
    <path class="cls-1" d="M264.56,157.79c-.49,35.16,2.1,78.66,11.68,127.59H37.4c.41-2.12,12.14-93.96,11.68-127.59l-.02-.99c-.12-8.44-.43-16.4-.87-23.83-1.11-35.42-4.66-62.6-9.05-68.38,0,0-.01,0-.01-.02,20.37,3.49,37.49-.02,39.45-8.59,2.14-9.35-14.55-21.15-37.3-26.36-.89-.21-1.78-.4-2.68-.57-.4-.09-.8-.16-1.2-.23v-.6h238.24v.6c-1.28.23-2.57.5-3.88.8-22.74,5.21-39.44,17.01-37.3,26.36,1.97,8.57,19.1,12.08,39.45,8.59-5.34,6.95-9.41,45.59-9.41,92.23l.06.99h0ZM207.21,159.02c0-23.68-22.29-42.87-49.79-42.87s-49.79,19.2-49.79,42.87c0,17.63,12.37,32.78,30.04,39.35,0,.01,0,.01,0,.01,15.32,8.92,19.74,47.64,19.74,47.64,0,0,4.42-38.72,19.74-47.64h.01c17.67-6.59,30.04-21.74,30.04-39.36ZM157.23,122.59c-28.73,0-41.26,22.73-41.26,39.61,0,0,7.32-30.16,41.31-30.16s41.22,30.16,41.22,30.16c0-16.88-12.53-39.61-41.26-39.61Z"/>
    <path class="cls-1" d="M296.99,174.54c.42-30.08-1.79-67.28-9.99-109.14h204.3c-.35,1.81-10.39,80.37-9.99,109.14l.02.85c.1,7.22.37,14.03.74,20.39.95,30.3,3.98,53.55,7.74,58.49,0,0,.01,0,.01.02-17.42-2.98-32.07.02-33.75,7.35-1.83,8,12.45,18.09,31.91,22.55.76.18,1.52.34,2.29.48.34.08.69.13,1.03.2v.51h-203.79v-.51c1.1-.2,2.2-.43,3.32-.69,19.45-4.46,33.74-14.55,31.91-22.55-1.69-7.33-16.34-10.33-33.75-7.35,4.56-5.95,8.05-39,8.05-78.89l-.05-.85h0ZM346.04,173.49c0,20.25,19.07,36.67,42.59,36.67s42.59-16.42,42.59-36.67c0-15.08-10.58-28.04-25.69-33.66,0,0,0,0,0,0-13.11-7.63-16.89-40.75-16.89-40.75,0,0-3.78,33.12-16.89,40.75h-.01c-15.11,5.63-25.69,18.59-25.69,33.67ZM388.8,204.65c24.58,0,35.3-19.45,35.3-33.89,0,0-6.26,25.8-35.34,25.8s-35.26-25.8-35.26-25.8c0,14.44,10.72,33.89,35.3,33.89Z"/>
    <path class="cls-1" d="M762.6,285.38h-106.51c1.26-5.04,2.27-9.89,3.04-14.56,8.58-48.66-3.83-75.15-19.84-89.56h-.01c-14.98-18.02-32.08-24.63-32.08-24.63,85.74-6.08,72.74-49.87,65.7-64.79,0,0-.01,0-.01-.02-.58-1.62-1.44-3.31-2.66-4.94-1.37-1.85-3.22-3.65-5.69-5.29,0-.01-.02-.02-.03-.02-11.78-8.78-27.63-10.27-27.63-10.27,0,0-15.19-1.76-30.34,8.72-8.2,4.42-13.17,10.93-16.18,17.54,0,0,0,.01,0,.02-8.11,13.41-14,33.6-14,63.93,0,86.02,53.62,28.09,53.62,28.09,0,0-3.48,35.06.27,53,3.75,17.93,17.13,42.83,17.13,42.83l-142.36-.39v-.6s.08-.02.12-.02c2.42-12.48,4.39-24.61,5.99-36.33,4.58-33.92,5.92-64.48,5.55-90.47,0,0-.45-17.37-.89-24.79,0-.19-.01-.38-.02-.57,0-.63-.03-1.26-.06-1.89-.02-.59-.04-1.18-.07-1.77-.02-.62-.04-1.23-.08-1.85-.02-.6-.04-1.19-.07-1.79-.03-.59-.06-1.18-.08-1.76-.04-.85-.08-1.68-.12-2.5-.04-.79-.08-1.58-.12-2.36-.03-.58-.07-1.17-.1-1.75-.03-.59-.07-1.16-.1-1.74-.03-.53-.07-1.06-.1-1.58-.03-.59-.07-1.17-.11-1.76-.03-.5-.07-.99-.1-1.48-.04-.59-.08-1.17-.12-1.75-.03-.46-.07-.91-.1-1.37-.1-1.23-.19-2.46-.29-3.66-.02-.27-.04-.55-.07-.81-.06-.61-.11-1.21-.17-1.82-.03-.37-.07-.73-.1-1.09-.06-.6-.11-1.2-.17-1.79-.03-.33-.07-.68-.1-1.01-.07-.6-.12-1.2-.19-1.79-.02-.28-.06-.57-.09-.85-.07-.62-.13-1.25-.2-1.85-.01-.07-.02-.12-.02-.19-.18-1.51-.36-2.98-.55-4.4,0-.02,0-.06,0-.09-.08-.61-.16-1.21-.25-1.8-.02-.19-.06-.38-.08-.57-.08-.56-.17-1.11-.24-1.67-.02-.18-.06-.36-.08-.54-.09-.57-.18-1.12-.27-1.66-.01-.09-.03-.18-.04-.28-.31-1.85-.62-3.57-.96-5.16,0-.03,0-.08-.02-.11-.1-.48-.2-.95-.3-1.4-.02-.11-.04-.22-.07-.33-.1-.43-.2-.86-.31-1.27-.02-.1-.04-.19-.07-.29-.12-.5-.26-.98-.38-1.44-.33-1.2-.67-2.28-1.02-3.22-.02-.08-.06-.14-.08-.22-.1-.27-.21-.52-.31-.76-.03-.1-.08-.18-.11-.27-.11-.23-.21-.46-.31-.65-.03-.08-.08-.14-.11-.22-.11-.2-.22-.4-.32-.57,0-.01-.01-.01-.01-.02-.13-.21-.27-.41-.4-.59,0-.01,0-.01,0-.02,3.09.54,6.11.9,9.01,1.11,7.59.56,14.37.06,19.63-1.39,5.92-1.62,9.88-4.45,10.76-8.3.13-.58.19-1.18.19-1.77,0-.12-.02-.24-.03-.36-.01-.19-.01-.37-.04-.56v-.03c-.86-6.31-9.15-13.3-21.35-18.48-4.81-2.04-10.2-3.79-16.01-5.13-1.29-.3-2.58-.57-3.87-.8v-.6h152.1c33.09,0,61.54,23.36,68.06,55.79,1.64,8.18,3.67,17.19,6.16,26.98,5.08,19.96-4.36,40.72-22.7,50.07-.18.09-.35.18-.53.27-.02.01-.06.02-.08.04-1.23.57-2.38,1.18-3.47,1.82-52.03,30.43,58.05,122.18,58.05,122.18h0ZM596.78,103.41c11.36-21.21,34.88-29.41,51.66-21.68,12.05,5.55,23.54,20.66,19.54,37.21-3.2,13.26-15.37,23.38-30.25,24.63,12-4.19,20.3-14.78,21.15-26.77.81-11.57-6.13-20.56-14.28-25.61-13.5-8.36-34.35-5.23-47.82,12.22Z"/>
  </g>
  <g>
    <path class="cls-1" d="M306.03,14.58h56.69c6.47,0,11.55.46,15.25,1.37s7.32,2.6,10.86,5.04c6.83,4.78,10.24,10.06,10.24,15.83,0,6.17-3.51,11.2-10.52,15.07-7.02,3.88-16.12,5.81-27.3,5.81h-55.21s15.83-4.28,15.83-12.26v-19.61c0-7.39-15.83-11.26-15.83-11.26ZM344.14,49.18h10.59c7.46,0,12.41-.82,14.87-2.45,2.45-1.63,3.68-4.91,3.68-9.84,0-9.78-6.11-14.66-18.33-14.66h-10.81v26.96Z"/>
    <path class="cls-1" d="M404.3,36.15l19.21-.17c-.13.63-4.24,6.17-4.28,9.15s2.2,6.04,7.23,6.04c2.66,0,4.43-.69,5.33-2.07s1.34-4.1,1.34-8.17v-13.85c0-7.56-15.83-12.5-15.83-12.5h53.94s-15.83,4.84-15.83,12.5v15.88c0,4.38-1.04,7.52-3.13,9.42-5.54,5.01-13.95,7.52-25.22,7.52-7.92,0-14.15-1.32-18.68-3.97-4.53-2.64-6.79-6.28-6.79-10.92,0-1.98,1.3-6.55,2.71-8.86Z"/>
  </g>
</svg>